<?xml version="1.0" standalone="no"?>
<!DOCTYPE svg PUBLIC "-//W3C//DTD SVG 20010904//EN"
 "http://www.w3.org/TR/2001/REC-SVG-20010904/DTD/svg10.dtd">
<svg version="1.0" xmlns="http://www.w3.org/2000/svg"
 width="1920.000000pt" height="1080.000000pt" viewBox="0 0 1920.000000 1080.000000"
 preserveAspectRatio="xMidYMid meet">

<g transform="translate(0.000000,1080.000000) scale(0.100000,-0.100000)"
fill="#000000" stroke="none">
<path d="M0 5400 l0 -5400 9600 0 9600 0 0 5400 0 5400 -9600 0 -9600 0 0
-5400z m11990 -180 l0 -180 -95 0 -95 0 0 180 0 180 95 0 95 0 0 -180z m-4403
149 l30 -10 6 -97 c2 -53 3 -99 1 -101 -1 -2 -18 7 -36 20 -22 16 -47 24 -76
24 -37 0 -48 -5 -73 -33 -38 -42 -39 -89 -3 -131 37 -44 82 -50 144 -18 l49
26 -6 -97 c-3 -53 -9 -101 -14 -106 -5 -5 -44 -11 -88 -14 -132 -8 -220 37
-276 140 -25 45 -29 64 -29 128 0 104 35 170 126 239 50 37 179 53 245 30z
m495 -9 c58 -22 124 -82 153 -140 10 -19 20 -62 23 -96 13 -163 -96 -282 -269
-292 -98 -6 -166 16 -227 71 -82 76 -109 174 -78 282 23 76 100 156 172 179
71 21 163 20 226 -4z m1940 0 c58 -22 124 -82 153 -140 10 -19 20 -62 23 -96
13 -163 -96 -282 -269 -292 -98 -6 -166 16 -227 71 -82 76 -109 174 -78 282
23 76 100 156 172 179 71 21 163 20 226 -4z m1205 9 l30 -10 6 -97 c2 -53 3
-99 1 -101 -1 -2 -18 7 -36 20 -22 16 -47 24 -76 24 -37 0 -48 -5 -73 -33 -38
-42 -39 -89 -3 -131 37 -44 82 -50 144 -18 l49 26 -6 -97 c-3 -53 -9 -101 -14
-106 -5 -5 -44 -11 -88 -14 -132 -8 -220 37 -276 140 -25 45 -29 64 -29 128 0
104 35 170 126 239 50 37 179 53 245 30z m-2580 -14 c122 -36 183 -121 183
-256 0 -124 -55 -207 -161 -244 -30 -11 -86 -15 -195 -15 l-154 0 0 265 0 265
138 0 c93 0 155 -5 189 -15z m613 -55 l0 -70 -80 0 -80 0 0 -30 0 -30 70 0 70
0 0 -70 0 -70 -70 0 c-68 0 -70 -1 -70 -25 0 -25 1 -25 80 -25 l80 0 0 -70 0
-70 -180 0 -180 0 0 265 0 265 180 0 180 0 0 -70z m1272 -74 c45 -79 84 -143
85 -142 2 1 -2 29 -7 62 -6 32 -10 96 -10 142 l0 82 95 0 95 0 0 -265 0 -265
-94 0 -94 0 -77 130 c-43 72 -78 130 -80 130 -1 0 0 -58 3 -130 l5 -130 -97 0
-96 0 0 265 0 265 94 0 94 0 84 -144z m1158 74 l0 -70 -80 0 -80 0 0 -30 0
-30 70 0 70 0 0 -70 0 -70 -70 0 c-68 0 -70 -1 -70 -25 0 -25 1 -25 80 -25
l80 0 0 -70 0 -70 -180 0 -180 0 0 265 0 265 180 0 180 0 0 -70z m261 -307
c84 -50 42 -163 -61 -163 -65 0 -122 58 -105 109 19 60 107 89 166 54z"/>
<path d="M7919 5195 c-34 -19 -53 -66 -46 -112 9 -54 38 -78 93 -78 61 0 94
35 94 100 0 79 -75 127 -141 90z"/>
<path d="M9859 5195 c-34 -19 -53 -66 -46 -112 9 -54 38 -78 93 -78 61 0 94
35 94 100 0 79 -75 127 -141 90z"/>
<path d="M8520 5100 l0 -102 32 6 c69 14 98 58 83 126 -8 34 -36 57 -83 66
l-32 7 0 -103z"/>
</g>
</svg>
