<?xml version="1.0" encoding="UTF-8"?>
<svg version="1.1" xmlns="http://www.w3.org/2000/svg" width="1920" height="1080">
<path d="M0 0 C633.6 0 1267.2 0 1920 0 C1920 356.4 1920 712.8 1920 1080 C1286.4 1080 652.8 1080 0 1080 C0 723.6 0 367.2 0 0 Z " fill="#1680BE" transform="translate(0,0)"/>
<path d="M0 0 C173.25 0 346.5 0 525 0 C525 29.04 525 58.08 525 88 C351.75 88 178.5 88 0 88 C0 58.96 0 29.92 0 0 Z " fill="#0B374C" transform="translate(698,524)"/>
<path d="M0 0 C8.17571161 4.41888744 14.33234009 10.3914863 17.0625 19.4375 C18.39590922 29.14896717 16.38920674 35.93563885 11.4375 44.125 C3.80022018 51.56129877 -3.76400507 53.74093932 -14.15258789 53.75219727 C-23.02052871 53.57100007 -28.81978444 50.24633599 -35.2109375 44.30078125 C-40.7872335 38.28292335 -42.29982296 31.84108898 -42.140625 23.828125 C-41.40408693 15.15963849 -37.3773826 9.15547405 -30.9375 3.4375 C-22.12141791 -2.25687331 -9.90631704 -4.05968159 0 0 Z " fill="#FAFBFB" transform="translate(1002.9375,543.5625)"/>
<path d="M0 0 C8.17571161 4.41888744 14.33234009 10.3914863 17.0625 19.4375 C18.39590922 29.14896717 16.38920674 35.93563885 11.4375 44.125 C3.80022018 51.56129877 -3.76400507 53.74093932 -14.15258789 53.75219727 C-23.02052871 53.57100007 -28.81978444 50.24633599 -35.2109375 44.30078125 C-40.7872335 38.28292335 -42.29982296 31.84108898 -42.140625 23.828125 C-41.40408693 15.15963849 -37.3773826 9.15547405 -30.9375 3.4375 C-22.12141791 -2.25687331 -9.90631704 -4.05968159 0 0 Z " fill="#FAFBFB" transform="translate(808.9375,543.5625)"/>
<path d="M0 0 C6.8371875 -0.12375 6.8371875 -0.12375 13.8125 -0.25 C15.22635986 -0.28641602 16.64021973 -0.32283203 18.09692383 -0.36035156 C27.27728466 -0.4400969 35.77571782 0.62742818 43.375 6.1875 C50.02685672 13.31448934 51.68221414 19.22426113 51.52563477 28.82226562 C51.1847154 36.04173459 49.39587284 40.30464306 44.5 45.8125 C38.05844676 51.44885909 33.12495785 53.26499966 24.4140625 53.1953125 C23.12967285 53.19031738 21.8452832 53.18532227 20.52197266 53.18017578 C18.90597168 53.16196777 17.2899707 53.14375977 15.625 53.125 C10.46875 53.08375 5.3125 53.0425 0 53 C0 35.51 0 18.02 0 0 Z " fill="#FAFBFB" transform="translate(832,543)"/>
<path d="M0 0 C6.27 0 12.54 0 19 0 C22.9542318 4.02148064 24.38471065 5.87325222 26.5 10.75 C27.51037969 12.76564354 28.520795 14.78126922 29.53125 16.796875 C29.93923828 17.69760742 30.34722656 18.59833984 30.76757812 19.52636719 C31.96511849 21.92998822 33.3216834 23.91123878 35 26 C34.75443359 24.83597656 34.75443359 24.83597656 34.50390625 23.6484375 C33.855088 18.9507922 33.89359613 14.35986339 33.9375 9.625 C33.94201172 8.69816406 33.94652344 7.77132812 33.95117188 6.81640625 C33.96288406 4.54424272 33.98081706 2.27211273 34 0 C40.27 0 46.54 0 53 0 C53 17.49 53 34.98 53 53 C46.73 53 40.46 53 34 53 C29.72144378 48.44488311 27.83125518 45.89941724 25.3125 40.5 C24.68321336 39.29201612 24.04717673 38.08752357 23.40429688 36.88671875 C21.86981404 33.9583164 20.42544703 30.98299827 19 28 C19 36.25 19 44.5 19 53 C12.73 53 6.46 53 0 53 C0 35.51 0 18.02 0 0 Z " fill="#FBFCFC" transform="translate(1026,543)"/>
<path d="M0 0 C11.88 0 23.76 0 36 0 C36 4.62 36 9.24 36 14 C30.72 14 25.44 14 20 14 C20 15.98 20 17.96 20 20 C24.62 20 29.24 20 34 20 C34 24.62 34 29.24 34 34 C29.38 34 24.76 34 20 34 C20 35.65 20 37.3 20 39 C25.28 39 30.56 39 36 39 C36 43.62 36 48.24 36 53 C24.12 53 12.24 53 0 53 C0 35.51 0 18.02 0 0 Z " fill="#FDFDFD" transform="translate(1133,543)"/>
<path d="M0 0 C11.88 0 23.76 0 36 0 C36 4.62 36 9.24 36 14 C30.72 14 25.44 14 20 14 C20 15.98 20 17.96 20 20 C24.62 20 29.24 20 34 20 C34 24.62 34 29.24 34 34 C29.38 34 24.76 34 20 34 C20 35.65 20 37.3 20 39 C25.28 39 30.56 39 36 39 C36 43.62 36 48.24 36 53 C24.12 53 12.24 53 0 53 C0 35.51 0 18.02 0 0 Z " fill="#FDFDFD" transform="translate(890,543)"/>
<path d="M0 0 C0 6.27 0 12.54 0 19 C-2.475 18.01 -2.475 18.01 -5 17 C-9.0776488 15.97286498 -11.98541506 15.53681992 -15.875 17.3125 C-18.04936863 18.97336469 -18.04936863 18.97336469 -20 21 C-20.4409754 25.48324992 -20.55183721 27.9193188 -18.5 31.9375 C-14.9611907 34.85701768 -12.55725493 35 -8 35 C-5.36 34.01 -2.72 33.02 0 32 C0 38.27 0 44.54 0 51 C-7.76611296 54.10644518 -17.26946315 54.60910162 -25.125 51.25 C-33.23666577 46.89739886 -37.79435531 41.14869075 -40.45703125 32.3515625 C-42.26569153 24.51837193 -40.81558242 18.01976588 -37 11 C-28.54986255 -1.8208982 -14.14289772 -5.65715909 0 0 Z " fill="#FAFBFB" transform="translate(1126,544)"/>
<path d="M0 0 C0 6.27 0 12.54 0 19 C-2.475 18.01 -2.475 18.01 -5 17 C-9.0776488 15.97286498 -11.98541506 15.53681992 -15.875 17.3125 C-18.04936863 18.97336469 -18.04936863 18.97336469 -20 21 C-20.4409754 25.48324992 -20.55183721 27.9193188 -18.5 31.9375 C-14.9611907 34.85701768 -12.55725493 35 -8 35 C-5.36 34.01 -2.72 33.02 0 32 C0 38.27 0 44.54 0 51 C-7.76611296 54.10644518 -17.26946315 54.60910162 -25.125 51.25 C-33.23666577 46.89739886 -37.79435531 41.14869075 -40.45703125 32.3515625 C-42.26569153 24.51837193 -40.81558242 18.01976588 -37 11 C-28.54986255 -1.8208982 -14.14289772 -5.65715909 0 0 Z " fill="#FAFBFB" transform="translate(762,544)"/>
<path d="M0 0 C4.62 0 9.24 0 14 0 C16.18846468 7.19066967 18.18840228 14.43699439 18 22 C18.66 22 19.32 22 20 22 C19.9175 20.96875 19.835 19.9375 19.75 18.875 C19.70300856 12.36668543 22.06675704 6.14495085 24 0 C27.63 0 31.26 0 35 0 C35.27714844 1.21558594 35.55429688 2.43117188 35.83984375 3.68359375 C36.20553898 5.26827307 36.57143475 6.85290612 36.9375 8.4375 C37.11990234 9.23994141 37.30230469 10.04238281 37.49023438 10.86914062 C38.09661008 14.74952729 38.09661008 14.74952729 40 18 C41.65 12.06 43.3 6.12 45 0 C49.62 0 54.24 0 59 0 C56.6019689 8.33335726 53.75628053 16.47090534 50.8125 24.625 C50.34416219 25.92829961 49.87606163 27.2316845 49.40820312 28.53515625 C48.27445598 31.69094727 47.1383377 34.8458626 46 38 C42.04 38 38.08 38 34 38 C32.26314772 31.88325935 30.90404241 26.32829687 30 20 C28.35 25.94 26.7 31.88 25 38 C21.04 38 17.08 38 13 38 C10.75341446 32.06846622 8.59896822 26.11026745 6.5 20.125 C6.20480469 19.29097656 5.90960937 18.45695312 5.60546875 17.59765625 C3.56336732 11.77721736 1.73650163 5.91892934 0 0 Z " fill="#0A384E" transform="translate(1003,469)"/>
<path d="M0 0 C4.29 0 8.58 0 13 0 C15.85622966 2.86281842 17.03020484 4.3521153 18.6875 7.8125 C19.28981445 8.91948242 19.28981445 8.91948242 19.90429688 10.04882812 C20.6461253 11.41730961 21.36781682 12.79705953 22.0612793 14.19067383 C23.08829911 16.25073977 23.08829911 16.25073977 25 19 C25 12.73 25 6.46 25 0 C29.29 0 33.58 0 38 0 C38 12.54 38 25.08 38 38 C33.38 38 28.76 38 24 38 C20.98821365 34.84920813 19.79812871 33.27203569 18.125 29.5 C17.71121094 28.68917969 17.29742188 27.87835938 16.87109375 27.04296875 C15.86440316 25.05299898 14.92507522 23.02919725 14 21 C13.67 26.61 13.34 32.22 13 38 C8.71 38 4.42 38 0 38 C0 25.46 0 12.92 0 0 Z " fill="#0A384D" transform="translate(871,469)"/>
<path d="M0 0 C4.29 0 8.58 0 13 0 C13 4.29 13 8.58 13 13 C15.97 13 18.94 13 22 13 C22 8.71 22 4.42 22 0 C26.29 0 30.58 0 35 0 C35 12.54 35 25.08 35 38 C30.71 38 26.42 38 22 38 C22 33.71 22 29.42 22 25 C19.03 25 16.06 25 13 25 C13 29.29 13 33.58 13 38 C8.71 38 4.42 38 0 38 C0 25.46 0 12.92 0 0 Z " fill="#0A374D" transform="translate(810,469)"/>
<path d="M0 0 C4.29 0 8.58 0 13 0 C13.33 4.62 13.66 9.24 14 14 C16.64 9.38 19.28 4.76 22 0 C26.95 0 31.9 0 37 0 C35.30729167 2.89713542 33.61458333 5.79427083 31.921875 8.69140625 C29.93123668 12.11837913 27.96253643 15.55687747 26 19 C26.36351562 19.54003662 26.72703125 20.08007324 27.1015625 20.63647461 C28.73675411 23.06856008 30.36841945 25.50299073 32 27.9375 C32.57234375 28.78763672 33.1446875 29.63777344 33.734375 30.51367188 C34.27578125 31.32255859 34.8171875 32.13144531 35.375 32.96484375 C35.87773438 33.7137085 36.38046875 34.46257324 36.8984375 35.23413086 C38 37 38 37 38 38 C32.72 38 27.44 38 22 38 C19.36 33.38 16.72 28.76 14 24 C13.67 28.62 13.34 33.24 13 38 C8.71 38 4.42 38 0 38 C0 25.46 0 12.92 0 0 Z " fill="#0A384E" transform="translate(914,469)"/>
<path d="M0 0 C8.25 0 16.5 0 25 0 C25 3.3 25 6.6 25 10 C21.37 10 17.74 10 14 10 C14 11.32 14 12.64 14 14 C17.3 14 20.6 14 24 14 C24 17.3 24 20.6 24 24 C20.7 24 17.4 24 14 24 C14 25.32 14 26.64 14 28 C17.96 28 21.92 28 26 28 C26 31.3 26 34.6 26 38 C17.42 38 8.84 38 0 38 C0 25.46 0 12.92 0 0 Z " fill="#0A374C" transform="translate(1118,469)"/>
<path d="M0 0 C0 4.62 0 9.24 0 14 C-1.98 13.34 -3.96 12.68 -6 12 C-9.16944887 11.77887566 -10.95731617 11.98577206 -14 13 C-14 16.63 -14 20.26 -14 24 C-10.46029282 25.17990239 -7.71816101 25.19569268 -4 25 C-2.68 24.34 -1.36 23.68 0 23 C0 27.29 0 31.58 0 36 C-7.46801622 38.48933874 -12.59839462 38.74133533 -20 36 C-24.32511545 33.28422983 -27.37385186 29.86974844 -29 25 C-29.72750176 19.59150207 -29.98599994 14.08961027 -27.4375 9.125 C-24.20718212 4.98356682 -20.87499162 0.86543115 -15.703125 -0.69140625 C-10.45534644 -1.29050236 -5.24087021 -0.47644275 0 0 Z " fill="#0A384E" transform="translate(1113,470)"/>
<path d="M0 0 C9.24 0 18.48 0 28 0 C28 3.96 28 7.92 28 12 C25.69 12 23.38 12 21 12 C21 20.58 21 29.16 21 38 C16.38 38 11.76 38 7 38 C7 29.09 7 20.18 7 11 C4.69 11.33 2.38 11.66 0 12 C0 8.04 0 4.08 0 0 Z " fill="#0A374D" transform="translate(974,469)"/>
<path d="M0 0 C9.24 0 18.48 0 28 0 C28 3.96 28 7.92 28 12 C25.69 12 23.38 12 21 12 C21 20.58 21 29.16 21 38 C16.38 38 11.76 38 7 38 C7 29.09 7 20.18 7 11 C4.69 11.33 2.38 11.66 0 12 C0 8.04 0 4.08 0 0 Z " fill="#0A374D" transform="translate(778,469)"/>
<path d="M0 0 C6.27 0 12.54 0 19 0 C19 11.88 19 23.76 19 36 C12.73 36 6.46 36 0 36 C0 24.12 0 12.24 0 0 Z " fill="#F9F9FA" transform="translate(1180,540)"/>
<path d="M0 0 C4.62 0 9.24 0 14 0 C14 12.54 14 25.08 14 38 C9.38 38 4.76 38 0 38 C0 25.46 0 12.92 0 0 Z " fill="#0A394F" transform="translate(1065,469)"/>
<path d="M0 0 C4.62 0 9.24 0 14 0 C14 12.54 14 25.08 14 38 C9.38 38 4.76 38 0 38 C0 25.46 0 12.92 0 0 Z " fill="#0A394F" transform="translate(851,469)"/>
<path d="M0 0 C2.79659888 2.18271132 3.76939596 3.66006916 4.37109375 7.15625 C4.58437925 11.03416826 4.25203909 13.49592183 2.5 17 C-0.87576557 19.70061246 -3.71181408 20.29838272 -8 20 C-10.89701408 18.80340723 -12.40165939 17.76929507 -14.3125 15.3125 C-15.34258338 11.84767407 -15.5914722 8.54883321 -15 5 C-10.89369963 -1.43320391 -7.07625073 -1.78477372 0 0 Z " fill="#0E3A4E" transform="translate(996,560)"/>
<path d="M0 0 C2.79659888 2.18271132 3.76939596 3.66006916 4.37109375 7.15625 C4.58437925 11.03416826 4.25203909 13.49592183 2.5 17 C-0.87576557 19.70061246 -3.71181408 20.29838272 -8 20 C-10.89701408 18.80340723 -12.40165939 17.76929507 -14.3125 15.3125 C-15.34258338 11.84767407 -15.5914722 8.54883321 -15 5 C-10.89369963 -1.43320391 -7.07625073 -1.78477372 0 0 Z " fill="#0E3A4E" transform="translate(802,560)"/>
<path d="M0 0 C3.68095273 1.87625236 5.69735347 4.07314501 7 8.0625 C7 11.1953055 6.88140434 12.51996701 5 15 C1.43024733 17.93979631 -1.58549742 18.46628554 -6.06640625 18.296875 C-8.89011354 17.8633361 -10.77655654 16.75180394 -13 15 C-14.62449144 11.75101712 -14.68922651 8.49966473 -14 5 C-10.05155734 0.26186881 -6.13192637 -1.51164785 0 0 Z " fill="#F9F9FA" transform="translate(1193,579)"/>
<path d="M0 0 C7 1 7 1 9.9375 3.125 C12.54996305 6.76661517 12.6284025 8.6011825 12 13 C10.61441078 16.28165869 9.70526403 17.62024245 6.5625 19.3125 C4 20 4 20 0 20 C0 13.4 0 6.8 0 0 Z " fill="#0D394D" transform="translate(852,560)"/>
</svg>
